<svg xmlns="http://www.w3.org/2000/svg" version="1.1" xmlns:xlink="http://www.w3.org/1999/xlink" width="1000" height="1000"><style>
    #light-icon {
      display: inline;
    }
    #dark-icon {
      display: none;
    }

    @media (prefers-color-scheme: dark) {
      #light-icon {
        display: none;
      }
      #dark-icon {
        display: inline;
      }
    }
  </style><g id="light-icon"><svg xmlns="http://www.w3.org/2000/svg" version="1.1" xmlns:xlink="http://www.w3.org/1999/xlink" width="1000" height="1000"><g><g transform="matrix(28.571428571428573,0,0,28.571428571428573,14.285714285714278,0)" style="filter: contrast(1) brightness(1)"><svg xmlns="http://www.w3.org/2000/svg" version="1.1" xmlns:xlink="http://www.w3.org/1999/xlink" width="34" height="35"><svg width="34" height="35" viewBox="0 0 34 35" fill="none" xmlns="http://www.w3.org/2000/svg">
<mask id="path-1-outside-1_2_698" maskUnits="userSpaceOnUse" x="-0.319824" y="1.88745" width="34" height="31" fill="black">
<rect fill="white" x="-0.319824" y="1.88745" width="34" height="31"></rect>
<path d="M19.0401 2.89023L15.0439 2.88745C14.9127 2.88745 14.7977 2.96115 14.7355 3.06961C14.7355 3.07239 14.7342 3.07517 14.7328 3.07796L0.727846 27.9743C0.664286 28.0869 0.664286 28.226 0.727846 28.34L2.72122 31.8998C2.73609 31.9276 2.75502 31.9526 2.77666 31.9749C2.80506 32.0041 2.84022 32.0263 2.87674 32.0444C2.8862 32.0486 2.89567 32.0528 2.90514 32.0569C2.94435 32.0722 2.98492 32.082 3.0282 32.082L31.007 32.1028C31.1342 32.1028 31.2518 32.0333 31.3154 31.9207L33.3155 28.365C33.3277 28.3442 33.3344 28.3219 33.3412 28.2997C33.3466 28.2844 33.3507 28.2691 33.3534 28.2524C33.3588 28.2218 33.3615 28.1912 33.3601 28.1606C33.3601 28.1453 33.3574 28.13 33.3547 28.1133C33.3493 28.0814 33.3385 28.0494 33.3236 28.0188C33.3209 28.0118 33.3209 28.0049 33.3169 27.9979L19.3484 3.07378C19.2848 2.96115 19.1672 2.89162 19.0414 2.89023H19.0401ZM3.64487 31.3519L9.03265 21.7725L10.619 24.6036L8.72161 27.9757C8.72161 27.9757 8.72161 27.9771 8.72026 27.9785C8.69997 28.016 8.6878 28.0577 8.68104 28.1008C8.67968 28.1106 8.67833 28.1203 8.67698 28.1314C8.67698 28.1412 8.67292 28.1509 8.67292 28.1606C8.67292 28.1759 8.67968 28.1898 8.68239 28.2051C8.68509 28.2302 8.68915 28.2538 8.69727 28.2788C8.70538 28.3011 8.71485 28.3205 8.72567 28.34C8.73648 28.3609 8.74865 28.3803 8.76353 28.3984C8.77976 28.4165 8.79734 28.4318 8.81627 28.4471C8.82844 28.4568 8.83656 28.4707 8.85008 28.4777C8.85684 28.4818 8.86496 28.4818 8.87172 28.4846C8.892 28.4944 8.91364 28.4999 8.93528 28.5069C8.95962 28.5138 8.98396 28.5208 9.00966 28.5222C9.01642 28.5222 9.02183 28.5263 9.02859 28.5263L17.0224 28.5347C17.0994 28.5347 17.1711 28.5069 17.2306 28.4624C17.2347 28.4596 17.2374 28.4568 17.2414 28.454C17.2766 28.4262 17.3077 28.3928 17.3307 28.3525C17.3307 28.3497 17.3307 28.3484 17.3334 28.3456L21.0253 21.7808L22.6103 24.612L20.7116 27.9868C20.7116 27.9868 20.7089 27.9993 20.7048 28.0049C20.6926 28.0299 20.6845 28.0577 20.6778 28.0855C20.6737 28.105 20.6683 28.1231 20.6669 28.1425C20.6669 28.1523 20.6615 28.1592 20.6615 28.169C20.6615 28.1884 20.6697 28.2051 20.6724 28.2246C20.6751 28.2441 20.6778 28.2621 20.6832 28.2816C20.6926 28.3094 20.7048 28.3344 20.7197 28.3581C20.7292 28.3734 20.7373 28.3887 20.7481 28.4012C20.767 28.4248 20.79 28.4429 20.8144 28.461C20.8238 28.4679 20.8306 28.4777 20.84 28.4846C20.8455 28.4874 20.8509 28.4874 20.8563 28.4902C20.8806 28.5027 20.9063 28.5097 20.9334 28.5166C20.9536 28.5222 20.9739 28.5277 20.9942 28.5291C21.0023 28.5291 21.0077 28.5333 21.0159 28.5333L32.3905 28.543L30.8015 31.3686L3.64352 31.3478L3.64487 31.3519ZM23.227 24.2504L21.335 20.87C21.3282 20.8589 21.3188 20.8491 21.312 20.8394C21.3093 20.8352 21.3066 20.8324 21.3039 20.8283C21.2769 20.7921 21.2444 20.7601 21.2052 20.7365C21.1971 20.7323 21.189 20.7323 21.1808 20.7282C21.1633 20.7198 21.1457 20.7156 21.1267 20.7101C21.0997 20.7017 21.0727 20.6934 21.0456 20.692C21.0402 20.692 21.0348 20.6878 21.0294 20.6878L17.2103 20.6433L15.647 17.8553L22.8199 17.8609L26.4009 24.2532L23.227 24.2504ZM14.7247 17.306C14.7058 17.3408 14.6936 17.3797 14.6855 17.42C14.6855 17.4228 14.6855 17.4256 14.6855 17.4284C14.6841 17.4395 14.6828 17.4493 14.6814 17.459C14.6814 17.4687 14.6774 17.4785 14.6774 17.4882C14.6774 17.4882 14.6774 17.4882 14.6774 17.4896C14.6774 17.491 14.6774 17.4924 14.6774 17.4937C14.6774 17.5229 14.6814 17.5535 14.6882 17.5827C14.6882 17.5855 14.6895 17.5869 14.6909 17.5883C14.6936 17.5966 14.6977 17.605 14.7004 17.6133C14.7044 17.6245 14.7085 17.6342 14.7125 17.6453C14.7166 17.6537 14.7179 17.6634 14.7234 17.6717L16.6018 21.023C16.6018 21.0327 16.6058 21.041 16.6072 21.0508L15.0263 23.875L11.4439 17.484L15.0344 11.1L16.6207 13.9312L14.7234 17.3046L14.7247 17.306ZM15.0263 24.9735C15.033 24.9735 15.0398 24.9693 15.0466 24.9693C15.0628 24.9693 15.0777 24.9665 15.0925 24.9624C15.1088 24.9596 15.125 24.9554 15.1399 24.9499C15.1548 24.9443 15.1683 24.9387 15.1818 24.9318C15.1886 24.929 15.1953 24.929 15.2021 24.9248C15.2088 24.9207 15.2116 24.9137 15.2183 24.9095C15.2318 24.9012 15.2427 24.8915 15.2548 24.8803C15.267 24.8692 15.2792 24.8581 15.29 24.8456C15.3008 24.8331 15.3103 24.8205 15.3184 24.8066C15.3224 24.8011 15.3292 24.7969 15.3319 24.7899L17.2441 21.3734L20.41 21.4109L16.8141 27.8046L9.64256 27.7963L11.2329 24.9693L15.0249 24.9721L15.0263 24.9735ZM15.0425 3.98459L20.4154 13.5682L17.2374 13.5655L15.3441 10.1864C15.2805 10.0738 15.1629 10.0043 15.0371 10.0029C14.91 10.0029 14.7923 10.0724 14.7288 10.185L10.7271 17.2991C10.7271 17.2991 10.7244 17.3116 10.7217 17.3171C10.7069 17.3477 10.696 17.3811 10.6893 17.4145C10.6866 17.4284 10.6852 17.4423 10.6839 17.4562C10.6812 17.4951 10.6825 17.5341 10.692 17.5716C10.692 17.5758 10.6947 17.58 10.696 17.5855C10.7042 17.6133 10.7136 17.6398 10.7285 17.6662L14.4123 24.2393L11.2356 24.2365L9.34234 20.8589C9.33693 20.8505 9.32881 20.845 9.32476 20.838C9.31529 20.8227 9.30177 20.8102 9.2896 20.7963C9.26931 20.774 9.24903 20.7532 9.22468 20.7379C9.21927 20.7351 9.21657 20.7295 9.21116 20.7254C9.20034 20.7184 9.18817 20.7184 9.17735 20.7129C9.15166 20.7017 9.12731 20.6906 9.09891 20.6864C9.07728 20.6823 9.05699 20.6823 9.03535 20.6823C9.01236 20.6823 8.99073 20.6823 8.96774 20.6864C8.94204 20.692 8.91905 20.7003 8.89471 20.7115C8.88254 20.717 8.86901 20.717 8.85684 20.724C8.84873 20.7282 8.84332 20.7351 8.83656 20.7393C8.82574 20.7476 8.81492 20.756 8.8041 20.7643C8.77705 20.788 8.75406 20.8144 8.73648 20.8436C8.73378 20.8491 8.72837 20.8519 8.72567 20.8561L3.0309 30.9807L1.4473 28.1523L15.0425 3.98459ZM18.8345 3.62166L32.3946 27.8172L21.6352 27.8074L23.2242 24.9818L27.0162 24.9846C27.023 24.9846 27.0298 24.9804 27.0365 24.9804C27.0595 24.9791 27.0825 24.9721 27.1055 24.9665C27.1285 24.9596 27.1515 24.954 27.1731 24.9429C27.1799 24.9401 27.1866 24.9401 27.1934 24.936C27.2069 24.9276 27.2137 24.9151 27.2259 24.9067C27.2461 24.8915 27.2651 24.8762 27.2813 24.8567C27.2962 24.8386 27.307 24.8191 27.3192 24.7997C27.33 24.7788 27.3408 24.7594 27.3489 24.7371C27.357 24.7135 27.3597 24.6884 27.3638 24.6634C27.3652 24.6481 27.3719 24.6342 27.3719 24.6189C27.3719 24.612 27.3679 24.605 27.3679 24.598C27.3679 24.5744 27.3597 24.5508 27.3543 24.5271C27.3476 24.5035 27.3422 24.4799 27.3313 24.4576C27.3286 24.4506 27.3286 24.4437 27.3246 24.4367L23.3351 17.3144C23.327 17.3005 23.3149 17.2921 23.3067 17.281C23.2919 17.2601 23.2756 17.2393 23.2567 17.2226C23.2405 17.2087 23.2242 17.199 23.2067 17.1878C23.185 17.1739 23.1634 17.1628 23.1391 17.1531C23.1201 17.1461 23.0998 17.1433 23.0795 17.1405C23.062 17.1378 23.0457 17.1294 23.0268 17.1294L15.6484 17.1239L17.2387 14.2969L21.0307 14.2997C21.0375 14.2997 21.0443 14.2955 21.051 14.2955C21.0754 14.2955 21.0983 14.2871 21.1227 14.2802C21.1443 14.2732 21.166 14.2691 21.1863 14.2579C21.193 14.2552 21.2011 14.2552 21.2079 14.251C21.2228 14.2427 21.2309 14.2287 21.2431 14.219C21.2606 14.2051 21.2782 14.1912 21.2931 14.1731C21.3093 14.1537 21.3215 14.1328 21.3337 14.1105C21.3445 14.0925 21.3539 14.0744 21.3607 14.0535C21.3702 14.0285 21.3729 14.0021 21.3756 13.9743C21.3769 13.9604 21.3837 13.9479 21.3837 13.9326C21.3837 13.9256 21.3796 13.92 21.3796 13.9131C21.3783 13.8881 21.3715 13.863 21.3648 13.838C21.358 13.8144 21.3526 13.7921 21.3431 13.7713C21.3404 13.7643 21.3404 13.7574 21.3364 13.7504L15.6578 3.61888L18.8345 3.62166Z"></path>
</mask>
<path d="M19.0401 2.89023L15.0439 2.88745C14.9127 2.88745 14.7977 2.96115 14.7355 3.06961C14.7355 3.07239 14.7342 3.07517 14.7328 3.07796L0.727846 27.9743C0.664286 28.0869 0.664286 28.226 0.727846 28.34L2.72122 31.8998C2.73609 31.9276 2.75502 31.9526 2.77666 31.9749C2.80506 32.0041 2.84022 32.0263 2.87674 32.0444C2.8862 32.0486 2.89567 32.0528 2.90514 32.0569C2.94435 32.0722 2.98492 32.082 3.0282 32.082L31.007 32.1028C31.1342 32.1028 31.2518 32.0333 31.3154 31.9207L33.3155 28.365C33.3277 28.3442 33.3344 28.3219 33.3412 28.2997C33.3466 28.2844 33.3507 28.2691 33.3534 28.2524C33.3588 28.2218 33.3615 28.1912 33.3601 28.1606C33.3601 28.1453 33.3574 28.13 33.3547 28.1133C33.3493 28.0814 33.3385 28.0494 33.3236 28.0188C33.3209 28.0118 33.3209 28.0049 33.3169 27.9979L19.3484 3.07378C19.2848 2.96115 19.1672 2.89162 19.0414 2.89023H19.0401ZM3.64487 31.3519L9.03265 21.7725L10.619 24.6036L8.72161 27.9757C8.72161 27.9757 8.72161 27.9771 8.72026 27.9785C8.69997 28.016 8.6878 28.0577 8.68104 28.1008C8.67968 28.1106 8.67833 28.1203 8.67698 28.1314C8.67698 28.1412 8.67292 28.1509 8.67292 28.1606C8.67292 28.1759 8.67968 28.1898 8.68239 28.2051C8.68509 28.2302 8.68915 28.2538 8.69727 28.2788C8.70538 28.3011 8.71485 28.3205 8.72567 28.34C8.73648 28.3609 8.74865 28.3803 8.76353 28.3984C8.77976 28.4165 8.79734 28.4318 8.81627 28.4471C8.82844 28.4568 8.83656 28.4707 8.85008 28.4777C8.85684 28.4818 8.86496 28.4818 8.87172 28.4846C8.892 28.4944 8.91364 28.4999 8.93528 28.5069C8.95962 28.5138 8.98396 28.5208 9.00966 28.5222C9.01642 28.5222 9.02183 28.5263 9.02859 28.5263L17.0224 28.5347C17.0994 28.5347 17.1711 28.5069 17.2306 28.4624C17.2347 28.4596 17.2374 28.4568 17.2414 28.454C17.2766 28.4262 17.3077 28.3928 17.3307 28.3525C17.3307 28.3497 17.3307 28.3484 17.3334 28.3456L21.0253 21.7808L22.6103 24.612L20.7116 27.9868C20.7116 27.9868 20.7089 27.9993 20.7048 28.0049C20.6926 28.0299 20.6845 28.0577 20.6778 28.0855C20.6737 28.105 20.6683 28.1231 20.6669 28.1425C20.6669 28.1523 20.6615 28.1592 20.6615 28.169C20.6615 28.1884 20.6697 28.2051 20.6724 28.2246C20.6751 28.2441 20.6778 28.2621 20.6832 28.2816C20.6926 28.3094 20.7048 28.3344 20.7197 28.3581C20.7292 28.3734 20.7373 28.3887 20.7481 28.4012C20.767 28.4248 20.79 28.4429 20.8144 28.461C20.8238 28.4679 20.8306 28.4777 20.84 28.4846C20.8455 28.4874 20.8509 28.4874 20.8563 28.4902C20.8806 28.5027 20.9063 28.5097 20.9334 28.5166C20.9536 28.5222 20.9739 28.5277 20.9942 28.5291C21.0023 28.5291 21.0077 28.5333 21.0159 28.5333L32.3905 28.543L30.8015 31.3686L3.64352 31.3478L3.64487 31.3519ZM23.227 24.2504L21.335 20.87C21.3282 20.8589 21.3188 20.8491 21.312 20.8394C21.3093 20.8352 21.3066 20.8324 21.3039 20.8283C21.2769 20.7921 21.2444 20.7601 21.2052 20.7365C21.1971 20.7323 21.189 20.7323 21.1808 20.7282C21.1633 20.7198 21.1457 20.7156 21.1267 20.7101C21.0997 20.7017 21.0727 20.6934 21.0456 20.692C21.0402 20.692 21.0348 20.6878 21.0294 20.6878L17.2103 20.6433L15.647 17.8553L22.8199 17.8609L26.4009 24.2532L23.227 24.2504ZM14.7247 17.306C14.7058 17.3408 14.6936 17.3797 14.6855 17.42C14.6855 17.4228 14.6855 17.4256 14.6855 17.4284C14.6841 17.4395 14.6828 17.4493 14.6814 17.459C14.6814 17.4687 14.6774 17.4785 14.6774 17.4882C14.6774 17.4882 14.6774 17.4882 14.6774 17.4896C14.6774 17.491 14.6774 17.4924 14.6774 17.4937C14.6774 17.5229 14.6814 17.5535 14.6882 17.5827C14.6882 17.5855 14.6895 17.5869 14.6909 17.5883C14.6936 17.5966 14.6977 17.605 14.7004 17.6133C14.7044 17.6245 14.7085 17.6342 14.7125 17.6453C14.7166 17.6537 14.7179 17.6634 14.7234 17.6717L16.6018 21.023C16.6018 21.0327 16.6058 21.041 16.6072 21.0508L15.0263 23.875L11.4439 17.484L15.0344 11.1L16.6207 13.9312L14.7234 17.3046L14.7247 17.306ZM15.0263 24.9735C15.033 24.9735 15.0398 24.9693 15.0466 24.9693C15.0628 24.9693 15.0777 24.9665 15.0925 24.9624C15.1088 24.9596 15.125 24.9554 15.1399 24.9499C15.1548 24.9443 15.1683 24.9387 15.1818 24.9318C15.1886 24.929 15.1953 24.929 15.2021 24.9248C15.2088 24.9207 15.2116 24.9137 15.2183 24.9095C15.2318 24.9012 15.2427 24.8915 15.2548 24.8803C15.267 24.8692 15.2792 24.8581 15.29 24.8456C15.3008 24.8331 15.3103 24.8205 15.3184 24.8066C15.3224 24.8011 15.3292 24.7969 15.3319 24.7899L17.2441 21.3734L20.41 21.4109L16.8141 27.8046L9.64256 27.7963L11.2329 24.9693L15.0249 24.9721L15.0263 24.9735ZM15.0425 3.98459L20.4154 13.5682L17.2374 13.5655L15.3441 10.1864C15.2805 10.0738 15.1629 10.0043 15.0371 10.0029C14.91 10.0029 14.7923 10.0724 14.7288 10.185L10.7271 17.2991C10.7271 17.2991 10.7244 17.3116 10.7217 17.3171C10.7069 17.3477 10.696 17.3811 10.6893 17.4145C10.6866 17.4284 10.6852 17.4423 10.6839 17.4562C10.6812 17.4951 10.6825 17.5341 10.692 17.5716C10.692 17.5758 10.6947 17.58 10.696 17.5855C10.7042 17.6133 10.7136 17.6398 10.7285 17.6662L14.4123 24.2393L11.2356 24.2365L9.34234 20.8589C9.33693 20.8505 9.32881 20.845 9.32476 20.838C9.31529 20.8227 9.30177 20.8102 9.2896 20.7963C9.26931 20.774 9.24903 20.7532 9.22468 20.7379C9.21927 20.7351 9.21657 20.7295 9.21116 20.7254C9.20034 20.7184 9.18817 20.7184 9.17735 20.7129C9.15166 20.7017 9.12731 20.6906 9.09891 20.6864C9.07728 20.6823 9.05699 20.6823 9.03535 20.6823C9.01236 20.6823 8.99073 20.6823 8.96774 20.6864C8.94204 20.692 8.91905 20.7003 8.89471 20.7115C8.88254 20.717 8.86901 20.717 8.85684 20.724C8.84873 20.7282 8.84332 20.7351 8.83656 20.7393C8.82574 20.7476 8.81492 20.756 8.8041 20.7643C8.77705 20.788 8.75406 20.8144 8.73648 20.8436C8.73378 20.8491 8.72837 20.8519 8.72567 20.8561L3.0309 30.9807L1.4473 28.1523L15.0425 3.98459ZM18.8345 3.62166L32.3946 27.8172L21.6352 27.8074L23.2242 24.9818L27.0162 24.9846C27.023 24.9846 27.0298 24.9804 27.0365 24.9804C27.0595 24.9791 27.0825 24.9721 27.1055 24.9665C27.1285 24.9596 27.1515 24.954 27.1731 24.9429C27.1799 24.9401 27.1866 24.9401 27.1934 24.936C27.2069 24.9276 27.2137 24.9151 27.2259 24.9067C27.2461 24.8915 27.2651 24.8762 27.2813 24.8567C27.2962 24.8386 27.307 24.8191 27.3192 24.7997C27.33 24.7788 27.3408 24.7594 27.3489 24.7371C27.357 24.7135 27.3597 24.6884 27.3638 24.6634C27.3652 24.6481 27.3719 24.6342 27.3719 24.6189C27.3719 24.612 27.3679 24.605 27.3679 24.598C27.3679 24.5744 27.3597 24.5508 27.3543 24.5271C27.3476 24.5035 27.3422 24.4799 27.3313 24.4576C27.3286 24.4506 27.3286 24.4437 27.3246 24.4367L23.3351 17.3144C23.327 17.3005 23.3149 17.2921 23.3067 17.281C23.2919 17.2601 23.2756 17.2393 23.2567 17.2226C23.2405 17.2087 23.2242 17.199 23.2067 17.1878C23.185 17.1739 23.1634 17.1628 23.1391 17.1531C23.1201 17.1461 23.0998 17.1433 23.0795 17.1405C23.062 17.1378 23.0457 17.1294 23.0268 17.1294L15.6484 17.1239L17.2387 14.2969L21.0307 14.2997C21.0375 14.2997 21.0443 14.2955 21.051 14.2955C21.0754 14.2955 21.0983 14.2871 21.1227 14.2802C21.1443 14.2732 21.166 14.2691 21.1863 14.2579C21.193 14.2552 21.2011 14.2552 21.2079 14.251C21.2228 14.2427 21.2309 14.2287 21.2431 14.219C21.2606 14.2051 21.2782 14.1912 21.2931 14.1731C21.3093 14.1537 21.3215 14.1328 21.3337 14.1105C21.3445 14.0925 21.3539 14.0744 21.3607 14.0535C21.3702 14.0285 21.3729 14.0021 21.3756 13.9743C21.3769 13.9604 21.3837 13.9479 21.3837 13.9326C21.3837 13.9256 21.3796 13.92 21.3796 13.9131C21.3783 13.8881 21.3715 13.863 21.3648 13.838C21.358 13.8144 21.3526 13.7921 21.3431 13.7713C21.3404 13.7643 21.3404 13.7574 21.3364 13.7504L15.6578 3.61888L18.8345 3.62166Z" fill="black"></path>
<path d="M19.0401 2.89023L15.0439 2.88745C14.9127 2.88745 14.7977 2.96115 14.7355 3.06961C14.7355 3.07239 14.7342 3.07517 14.7328 3.07796L0.727846 27.9743C0.664286 28.0869 0.664286 28.226 0.727846 28.34L2.72122 31.8998C2.73609 31.9276 2.75502 31.9526 2.77666 31.9749C2.80506 32.0041 2.84022 32.0263 2.87674 32.0444C2.8862 32.0486 2.89567 32.0528 2.90514 32.0569C2.94435 32.0722 2.98492 32.082 3.0282 32.082L31.007 32.1028C31.1342 32.1028 31.2518 32.0333 31.3154 31.9207L33.3155 28.365C33.3277 28.3442 33.3344 28.3219 33.3412 28.2997C33.3466 28.2844 33.3507 28.2691 33.3534 28.2524C33.3588 28.2218 33.3615 28.1912 33.3601 28.1606C33.3601 28.1453 33.3574 28.13 33.3547 28.1133C33.3493 28.0814 33.3385 28.0494 33.3236 28.0188C33.3209 28.0118 33.3209 28.0049 33.3169 27.9979L19.3484 3.07378C19.2848 2.96115 19.1672 2.89162 19.0414 2.89023H19.0401ZM3.64487 31.3519L9.03265 21.7725L10.619 24.6036L8.72161 27.9757C8.72161 27.9757 8.72161 27.9771 8.72026 27.9785C8.69997 28.016 8.6878 28.0577 8.68104 28.1008C8.67968 28.1106 8.67833 28.1203 8.67698 28.1314C8.67698 28.1412 8.67292 28.1509 8.67292 28.1606C8.67292 28.1759 8.67968 28.1898 8.68239 28.2051C8.68509 28.2302 8.68915 28.2538 8.69727 28.2788C8.70538 28.3011 8.71485 28.3205 8.72567 28.34C8.73648 28.3609 8.74865 28.3803 8.76353 28.3984C8.77976 28.4165 8.79734 28.4318 8.81627 28.4471C8.82844 28.4568 8.83656 28.4707 8.85008 28.4777C8.85684 28.4818 8.86496 28.4818 8.87172 28.4846C8.892 28.4944 8.91364 28.4999 8.93528 28.5069C8.95962 28.5138 8.98396 28.5208 9.00966 28.5222C9.01642 28.5222 9.02183 28.5263 9.02859 28.5263L17.0224 28.5347C17.0994 28.5347 17.1711 28.5069 17.2306 28.4624C17.2347 28.4596 17.2374 28.4568 17.2414 28.454C17.2766 28.4262 17.3077 28.3928 17.3307 28.3525C17.3307 28.3497 17.3307 28.3484 17.3334 28.3456L21.0253 21.7808L22.6103 24.612L20.7116 27.9868C20.7116 27.9868 20.7089 27.9993 20.7048 28.0049C20.6926 28.0299 20.6845 28.0577 20.6778 28.0855C20.6737 28.105 20.6683 28.1231 20.6669 28.1425C20.6669 28.1523 20.6615 28.1592 20.6615 28.169C20.6615 28.1884 20.6697 28.2051 20.6724 28.2246C20.6751 28.2441 20.6778 28.2621 20.6832 28.2816C20.6926 28.3094 20.7048 28.3344 20.7197 28.3581C20.7292 28.3734 20.7373 28.3887 20.7481 28.4012C20.767 28.4248 20.79 28.4429 20.8144 28.461C20.8238 28.4679 20.8306 28.4777 20.84 28.4846C20.8455 28.4874 20.8509 28.4874 20.8563 28.4902C20.8806 28.5027 20.9063 28.5097 20.9334 28.5166C20.9536 28.5222 20.9739 28.5277 20.9942 28.5291C21.0023 28.5291 21.0077 28.5333 21.0159 28.5333L32.3905 28.543L30.8015 31.3686L3.64352 31.3478L3.64487 31.3519ZM23.227 24.2504L21.335 20.87C21.3282 20.8589 21.3188 20.8491 21.312 20.8394C21.3093 20.8352 21.3066 20.8324 21.3039 20.8283C21.2769 20.7921 21.2444 20.7601 21.2052 20.7365C21.1971 20.7323 21.189 20.7323 21.1808 20.7282C21.1633 20.7198 21.1457 20.7156 21.1267 20.7101C21.0997 20.7017 21.0727 20.6934 21.0456 20.692C21.0402 20.692 21.0348 20.6878 21.0294 20.6878L17.2103 20.6433L15.647 17.8553L22.8199 17.8609L26.4009 24.2532L23.227 24.2504ZM14.7247 17.306C14.7058 17.3408 14.6936 17.3797 14.6855 17.42C14.6855 17.4228 14.6855 17.4256 14.6855 17.4284C14.6841 17.4395 14.6828 17.4493 14.6814 17.459C14.6814 17.4687 14.6774 17.4785 14.6774 17.4882C14.6774 17.4882 14.6774 17.4882 14.6774 17.4896C14.6774 17.491 14.6774 17.4924 14.6774 17.4937C14.6774 17.5229 14.6814 17.5535 14.6882 17.5827C14.6882 17.5855 14.6895 17.5869 14.6909 17.5883C14.6936 17.5966 14.6977 17.605 14.7004 17.6133C14.7044 17.6245 14.7085 17.6342 14.7125 17.6453C14.7166 17.6537 14.7179 17.6634 14.7234 17.6717L16.6018 21.023C16.6018 21.0327 16.6058 21.041 16.6072 21.0508L15.0263 23.875L11.4439 17.484L15.0344 11.1L16.6207 13.9312L14.7234 17.3046L14.7247 17.306ZM15.0263 24.9735C15.033 24.9735 15.0398 24.9693 15.0466 24.9693C15.0628 24.9693 15.0777 24.9665 15.0925 24.9624C15.1088 24.9596 15.125 24.9554 15.1399 24.9499C15.1548 24.9443 15.1683 24.9387 15.1818 24.9318C15.1886 24.929 15.1953 24.929 15.2021 24.9248C15.2088 24.9207 15.2116 24.9137 15.2183 24.9095C15.2318 24.9012 15.2427 24.8915 15.2548 24.8803C15.267 24.8692 15.2792 24.8581 15.29 24.8456C15.3008 24.8331 15.3103 24.8205 15.3184 24.8066C15.3224 24.8011 15.3292 24.7969 15.3319 24.7899L17.2441 21.3734L20.41 21.4109L16.8141 27.8046L9.64256 27.7963L11.2329 24.9693L15.0249 24.9721L15.0263 24.9735ZM15.0425 3.98459L20.4154 13.5682L17.2374 13.5655L15.3441 10.1864C15.2805 10.0738 15.1629 10.0043 15.0371 10.0029C14.91 10.0029 14.7923 10.0724 14.7288 10.185L10.7271 17.2991C10.7271 17.2991 10.7244 17.3116 10.7217 17.3171C10.7069 17.3477 10.696 17.3811 10.6893 17.4145C10.6866 17.4284 10.6852 17.4423 10.6839 17.4562C10.6812 17.4951 10.6825 17.5341 10.692 17.5716C10.692 17.5758 10.6947 17.58 10.696 17.5855C10.7042 17.6133 10.7136 17.6398 10.7285 17.6662L14.4123 24.2393L11.2356 24.2365L9.34234 20.8589C9.33693 20.8505 9.32881 20.845 9.32476 20.838C9.31529 20.8227 9.30177 20.8102 9.2896 20.7963C9.26931 20.774 9.24903 20.7532 9.22468 20.7379C9.21927 20.7351 9.21657 20.7295 9.21116 20.7254C9.20034 20.7184 9.18817 20.7184 9.17735 20.7129C9.15166 20.7017 9.12731 20.6906 9.09891 20.6864C9.07728 20.6823 9.05699 20.6823 9.03535 20.6823C9.01236 20.6823 8.99073 20.6823 8.96774 20.6864C8.94204 20.692 8.91905 20.7003 8.89471 20.7115C8.88254 20.717 8.86901 20.717 8.85684 20.724C8.84873 20.7282 8.84332 20.7351 8.83656 20.7393C8.82574 20.7476 8.81492 20.756 8.8041 20.7643C8.77705 20.788 8.75406 20.8144 8.73648 20.8436C8.73378 20.8491 8.72837 20.8519 8.72567 20.8561L3.0309 30.9807L1.4473 28.1523L15.0425 3.98459ZM18.8345 3.62166L32.3946 27.8172L21.6352 27.8074L23.2242 24.9818L27.0162 24.9846C27.023 24.9846 27.0298 24.9804 27.0365 24.9804C27.0595 24.9791 27.0825 24.9721 27.1055 24.9665C27.1285 24.9596 27.1515 24.954 27.1731 24.9429C27.1799 24.9401 27.1866 24.9401 27.1934 24.936C27.2069 24.9276 27.2137 24.9151 27.2259 24.9067C27.2461 24.8915 27.2651 24.8762 27.2813 24.8567C27.2962 24.8386 27.307 24.8191 27.3192 24.7997C27.33 24.7788 27.3408 24.7594 27.3489 24.7371C27.357 24.7135 27.3597 24.6884 27.3638 24.6634C27.3652 24.6481 27.3719 24.6342 27.3719 24.6189C27.3719 24.612 27.3679 24.605 27.3679 24.598C27.3679 24.5744 27.3597 24.5508 27.3543 24.5271C27.3476 24.5035 27.3422 24.4799 27.3313 24.4576C27.3286 24.4506 27.3286 24.4437 27.3246 24.4367L23.3351 17.3144C23.327 17.3005 23.3149 17.2921 23.3067 17.281C23.2919 17.2601 23.2756 17.2393 23.2567 17.2226C23.2405 17.2087 23.2242 17.199 23.2067 17.1878C23.185 17.1739 23.1634 17.1628 23.1391 17.1531C23.1201 17.1461 23.0998 17.1433 23.0795 17.1405C23.062 17.1378 23.0457 17.1294 23.0268 17.1294L15.6484 17.1239L17.2387 14.2969L21.0307 14.2997C21.0375 14.2997 21.0443 14.2955 21.051 14.2955C21.0754 14.2955 21.0983 14.2871 21.1227 14.2802C21.1443 14.2732 21.166 14.2691 21.1863 14.2579C21.193 14.2552 21.2011 14.2552 21.2079 14.251C21.2228 14.2427 21.2309 14.2287 21.2431 14.219C21.2606 14.2051 21.2782 14.1912 21.2931 14.1731C21.3093 14.1537 21.3215 14.1328 21.3337 14.1105C21.3445 14.0925 21.3539 14.0744 21.3607 14.0535C21.3702 14.0285 21.3729 14.0021 21.3756 13.9743C21.3769 13.9604 21.3837 13.9479 21.3837 13.9326C21.3837 13.9256 21.3796 13.92 21.3796 13.9131C21.3783 13.8881 21.3715 13.863 21.3648 13.838C21.358 13.8144 21.3526 13.7921 21.3431 13.7713C21.3404 13.7643 21.3404 13.7574 21.3364 13.7504L15.6578 3.61888L18.8345 3.62166Z" stroke="black" stroke-width="0.2" mask="url(#path-1-outside-1_2_698)"></path>
</svg></svg></g></g></svg></g><g id="dark-icon"><svg xmlns="http://www.w3.org/2000/svg" version="1.1" xmlns:xlink="http://www.w3.org/1999/xlink" width="1000" height="1000"><g><g transform="matrix(28.571428571428573,0,0,28.571428571428573,14.285714285714278,0)"><svg xmlns="http://www.w3.org/2000/svg" version="1.1" xmlns:xlink="http://www.w3.org/1999/xlink" width="34" height="35"><svg width="34" height="35" viewBox="0 0 34 35" fill="none" xmlns="http://www.w3.org/2000/svg">
<mask id="path-1-outside-1_2_701" maskUnits="userSpaceOnUse" x="-0.319824" y="1.88745" width="34" height="31" fill="black">
<rect fill="white" x="-0.319824" y="1.88745" width="34" height="31"></rect>
<path d="M19.0401 2.89023L15.0439 2.88745C14.9127 2.88745 14.7977 2.96115 14.7355 3.06961C14.7355 3.07239 14.7342 3.07517 14.7328 3.07796L0.727846 27.9743C0.664286 28.0869 0.664286 28.226 0.727846 28.34L2.72122 31.8998C2.73609 31.9276 2.75502 31.9526 2.77666 31.9749C2.80506 32.0041 2.84022 32.0263 2.87674 32.0444C2.8862 32.0486 2.89567 32.0528 2.90514 32.0569C2.94435 32.0722 2.98492 32.082 3.0282 32.082L31.007 32.1028C31.1342 32.1028 31.2518 32.0333 31.3154 31.9207L33.3155 28.365C33.3277 28.3442 33.3344 28.3219 33.3412 28.2997C33.3466 28.2844 33.3507 28.2691 33.3534 28.2524C33.3588 28.2218 33.3615 28.1912 33.3601 28.1606C33.3601 28.1453 33.3574 28.13 33.3547 28.1133C33.3493 28.0814 33.3385 28.0494 33.3236 28.0188C33.3209 28.0118 33.3209 28.0049 33.3169 27.9979L19.3484 3.07378C19.2848 2.96115 19.1672 2.89162 19.0414 2.89023H19.0401ZM3.64487 31.3519L9.03265 21.7725L10.619 24.6036L8.72161 27.9757C8.72161 27.9757 8.72161 27.9771 8.72026 27.9785C8.69997 28.016 8.6878 28.0577 8.68104 28.1008C8.67968 28.1106 8.67833 28.1203 8.67698 28.1314C8.67698 28.1412 8.67292 28.1509 8.67292 28.1606C8.67292 28.1759 8.67968 28.1898 8.68239 28.2051C8.68509 28.2302 8.68915 28.2538 8.69727 28.2788C8.70538 28.3011 8.71485 28.3205 8.72567 28.34C8.73648 28.3609 8.74865 28.3803 8.76353 28.3984C8.77976 28.4165 8.79734 28.4318 8.81627 28.4471C8.82844 28.4568 8.83656 28.4707 8.85008 28.4777C8.85684 28.4818 8.86496 28.4818 8.87172 28.4846C8.892 28.4944 8.91364 28.4999 8.93528 28.5069C8.95962 28.5138 8.98396 28.5208 9.00966 28.5222C9.01642 28.5222 9.02183 28.5263 9.02859 28.5263L17.0224 28.5347C17.0994 28.5347 17.1711 28.5069 17.2306 28.4624C17.2347 28.4596 17.2374 28.4568 17.2414 28.454C17.2766 28.4262 17.3077 28.3928 17.3307 28.3525C17.3307 28.3497 17.3307 28.3484 17.3334 28.3456L21.0253 21.7808L22.6103 24.612L20.7116 27.9868C20.7116 27.9868 20.7089 27.9993 20.7048 28.0049C20.6926 28.0299 20.6845 28.0577 20.6778 28.0855C20.6737 28.105 20.6683 28.1231 20.6669 28.1425C20.6669 28.1523 20.6615 28.1592 20.6615 28.169C20.6615 28.1884 20.6697 28.2051 20.6724 28.2246C20.6751 28.2441 20.6778 28.2621 20.6832 28.2816C20.6926 28.3094 20.7048 28.3344 20.7197 28.3581C20.7292 28.3734 20.7373 28.3887 20.7481 28.4012C20.767 28.4248 20.79 28.4429 20.8144 28.461C20.8238 28.4679 20.8306 28.4777 20.84 28.4846C20.8455 28.4874 20.8509 28.4874 20.8563 28.4902C20.8806 28.5027 20.9063 28.5097 20.9334 28.5166C20.9536 28.5222 20.9739 28.5277 20.9942 28.5291C21.0023 28.5291 21.0077 28.5333 21.0159 28.5333L32.3905 28.543L30.8015 31.3686L3.64352 31.3478L3.64487 31.3519ZM23.227 24.2504L21.335 20.87C21.3282 20.8589 21.3188 20.8491 21.312 20.8394C21.3093 20.8352 21.3066 20.8324 21.3039 20.8283C21.2769 20.7921 21.2444 20.7601 21.2052 20.7365C21.1971 20.7323 21.189 20.7323 21.1808 20.7282C21.1633 20.7198 21.1457 20.7156 21.1267 20.7101C21.0997 20.7017 21.0727 20.6934 21.0456 20.692C21.0402 20.692 21.0348 20.6878 21.0294 20.6878L17.2103 20.6433L15.647 17.8553L22.8199 17.8609L26.4009 24.2532L23.227 24.2504ZM14.7247 17.306C14.7058 17.3408 14.6936 17.3797 14.6855 17.42C14.6855 17.4228 14.6855 17.4256 14.6855 17.4284C14.6841 17.4395 14.6828 17.4493 14.6814 17.459C14.6814 17.4687 14.6774 17.4785 14.6774 17.4882C14.6774 17.4882 14.6774 17.4882 14.6774 17.4896C14.6774 17.491 14.6774 17.4924 14.6774 17.4937C14.6774 17.5229 14.6814 17.5535 14.6882 17.5827C14.6882 17.5855 14.6895 17.5869 14.6909 17.5883C14.6936 17.5966 14.6977 17.605 14.7004 17.6133C14.7044 17.6245 14.7085 17.6342 14.7125 17.6453C14.7166 17.6537 14.7179 17.6634 14.7234 17.6717L16.6018 21.023C16.6018 21.0327 16.6058 21.041 16.6072 21.0508L15.0263 23.875L11.4439 17.484L15.0344 11.1L16.6207 13.9312L14.7234 17.3046L14.7247 17.306ZM15.0263 24.9735C15.033 24.9735 15.0398 24.9693 15.0466 24.9693C15.0628 24.9693 15.0777 24.9665 15.0925 24.9624C15.1088 24.9596 15.125 24.9554 15.1399 24.9499C15.1548 24.9443 15.1683 24.9387 15.1818 24.9318C15.1886 24.929 15.1953 24.929 15.2021 24.9248C15.2088 24.9207 15.2116 24.9137 15.2183 24.9095C15.2318 24.9012 15.2427 24.8915 15.2548 24.8803C15.267 24.8692 15.2792 24.8581 15.29 24.8456C15.3008 24.8331 15.3103 24.8205 15.3184 24.8066C15.3224 24.8011 15.3292 24.7969 15.3319 24.7899L17.2441 21.3734L20.41 21.4109L16.8141 27.8046L9.64256 27.7963L11.2329 24.9693L15.0249 24.9721L15.0263 24.9735ZM15.0425 3.98459L20.4154 13.5682L17.2374 13.5655L15.3441 10.1864C15.2805 10.0738 15.1629 10.0043 15.0371 10.0029C14.91 10.0029 14.7923 10.0724 14.7288 10.185L10.7271 17.2991C10.7271 17.2991 10.7244 17.3116 10.7217 17.3171C10.7069 17.3477 10.696 17.3811 10.6893 17.4145C10.6866 17.4284 10.6852 17.4423 10.6839 17.4562C10.6812 17.4951 10.6825 17.5341 10.692 17.5716C10.692 17.5758 10.6947 17.58 10.696 17.5855C10.7042 17.6133 10.7136 17.6398 10.7285 17.6662L14.4123 24.2393L11.2356 24.2365L9.34234 20.8589C9.33693 20.8505 9.32881 20.845 9.32476 20.838C9.31529 20.8227 9.30177 20.8102 9.2896 20.7963C9.26931 20.774 9.24903 20.7532 9.22468 20.7379C9.21927 20.7351 9.21657 20.7295 9.21116 20.7254C9.20034 20.7184 9.18817 20.7184 9.17735 20.7129C9.15166 20.7017 9.12731 20.6906 9.09891 20.6864C9.07728 20.6823 9.05699 20.6823 9.03535 20.6823C9.01236 20.6823 8.99073 20.6823 8.96774 20.6864C8.94204 20.692 8.91905 20.7003 8.89471 20.7115C8.88254 20.717 8.86901 20.717 8.85684 20.724C8.84873 20.7282 8.84332 20.7351 8.83656 20.7393C8.82574 20.7476 8.81492 20.756 8.8041 20.7643C8.77705 20.788 8.75406 20.8144 8.73648 20.8436C8.73378 20.8491 8.72837 20.8519 8.72567 20.8561L3.0309 30.9807L1.4473 28.1523L15.0425 3.98459ZM18.8345 3.62166L32.3946 27.8172L21.6352 27.8074L23.2242 24.9818L27.0162 24.9846C27.023 24.9846 27.0298 24.9804 27.0365 24.9804C27.0595 24.9791 27.0825 24.9721 27.1055 24.9665C27.1285 24.9596 27.1515 24.954 27.1731 24.9429C27.1799 24.9401 27.1866 24.9401 27.1934 24.936C27.2069 24.9276 27.2137 24.9151 27.2259 24.9067C27.2461 24.8915 27.2651 24.8762 27.2813 24.8567C27.2962 24.8386 27.307 24.8191 27.3192 24.7997C27.33 24.7788 27.3408 24.7594 27.3489 24.7371C27.357 24.7135 27.3597 24.6884 27.3638 24.6634C27.3652 24.6481 27.3719 24.6342 27.3719 24.6189C27.3719 24.612 27.3679 24.605 27.3679 24.598C27.3679 24.5744 27.3597 24.5508 27.3543 24.5271C27.3476 24.5035 27.3422 24.4799 27.3313 24.4576C27.3286 24.4506 27.3286 24.4437 27.3246 24.4367L23.3351 17.3144C23.327 17.3005 23.3149 17.2921 23.3067 17.281C23.2919 17.2601 23.2756 17.2393 23.2567 17.2226C23.2405 17.2087 23.2242 17.199 23.2067 17.1878C23.185 17.1739 23.1634 17.1628 23.1391 17.1531C23.1201 17.1461 23.0998 17.1433 23.0795 17.1405C23.062 17.1378 23.0457 17.1294 23.0268 17.1294L15.6484 17.1239L17.2387 14.2969L21.0307 14.2997C21.0375 14.2997 21.0443 14.2955 21.051 14.2955C21.0754 14.2955 21.0983 14.2871 21.1227 14.2802C21.1443 14.2732 21.166 14.2691 21.1863 14.2579C21.193 14.2552 21.2011 14.2552 21.2079 14.251C21.2228 14.2427 21.2309 14.2287 21.2431 14.219C21.2606 14.2051 21.2782 14.1912 21.2931 14.1731C21.3093 14.1537 21.3215 14.1328 21.3337 14.1105C21.3445 14.0925 21.3539 14.0744 21.3607 14.0535C21.3702 14.0285 21.3729 14.0021 21.3756 13.9743C21.3769 13.9604 21.3837 13.9479 21.3837 13.9326C21.3837 13.9256 21.3796 13.92 21.3796 13.9131C21.3783 13.8881 21.3715 13.863 21.3648 13.838C21.358 13.8144 21.3526 13.7921 21.3431 13.7713C21.3404 13.7643 21.3404 13.7574 21.3364 13.7504L15.6578 3.61888L18.8345 3.62166Z"></path>
</mask>
<path d="M19.0401 2.89023L15.0439 2.88745C14.9127 2.88745 14.7977 2.96115 14.7355 3.06961C14.7355 3.07239 14.7342 3.07517 14.7328 3.07796L0.727846 27.9743C0.664286 28.0869 0.664286 28.226 0.727846 28.34L2.72122 31.8998C2.73609 31.9276 2.75502 31.9526 2.77666 31.9749C2.80506 32.0041 2.84022 32.0263 2.87674 32.0444C2.8862 32.0486 2.89567 32.0528 2.90514 32.0569C2.94435 32.0722 2.98492 32.082 3.0282 32.082L31.007 32.1028C31.1342 32.1028 31.2518 32.0333 31.3154 31.9207L33.3155 28.365C33.3277 28.3442 33.3344 28.3219 33.3412 28.2997C33.3466 28.2844 33.3507 28.2691 33.3534 28.2524C33.3588 28.2218 33.3615 28.1912 33.3601 28.1606C33.3601 28.1453 33.3574 28.13 33.3547 28.1133C33.3493 28.0814 33.3385 28.0494 33.3236 28.0188C33.3209 28.0118 33.3209 28.0049 33.3169 27.9979L19.3484 3.07378C19.2848 2.96115 19.1672 2.89162 19.0414 2.89023H19.0401ZM3.64487 31.3519L9.03265 21.7725L10.619 24.6036L8.72161 27.9757C8.72161 27.9757 8.72161 27.9771 8.72026 27.9785C8.69997 28.016 8.6878 28.0577 8.68104 28.1008C8.67968 28.1106 8.67833 28.1203 8.67698 28.1314C8.67698 28.1412 8.67292 28.1509 8.67292 28.1606C8.67292 28.1759 8.67968 28.1898 8.68239 28.2051C8.68509 28.2302 8.68915 28.2538 8.69727 28.2788C8.70538 28.3011 8.71485 28.3205 8.72567 28.34C8.73648 28.3609 8.74865 28.3803 8.76353 28.3984C8.77976 28.4165 8.79734 28.4318 8.81627 28.4471C8.82844 28.4568 8.83656 28.4707 8.85008 28.4777C8.85684 28.4818 8.86496 28.4818 8.87172 28.4846C8.892 28.4944 8.91364 28.4999 8.93528 28.5069C8.95962 28.5138 8.98396 28.5208 9.00966 28.5222C9.01642 28.5222 9.02183 28.5263 9.02859 28.5263L17.0224 28.5347C17.0994 28.5347 17.1711 28.5069 17.2306 28.4624C17.2347 28.4596 17.2374 28.4568 17.2414 28.454C17.2766 28.4262 17.3077 28.3928 17.3307 28.3525C17.3307 28.3497 17.3307 28.3484 17.3334 28.3456L21.0253 21.7808L22.6103 24.612L20.7116 27.9868C20.7116 27.9868 20.7089 27.9993 20.7048 28.0049C20.6926 28.0299 20.6845 28.0577 20.6778 28.0855C20.6737 28.105 20.6683 28.1231 20.6669 28.1425C20.6669 28.1523 20.6615 28.1592 20.6615 28.169C20.6615 28.1884 20.6697 28.2051 20.6724 28.2246C20.6751 28.2441 20.6778 28.2621 20.6832 28.2816C20.6926 28.3094 20.7048 28.3344 20.7197 28.3581C20.7292 28.3734 20.7373 28.3887 20.7481 28.4012C20.767 28.4248 20.79 28.4429 20.8144 28.461C20.8238 28.4679 20.8306 28.4777 20.84 28.4846C20.8455 28.4874 20.8509 28.4874 20.8563 28.4902C20.8806 28.5027 20.9063 28.5097 20.9334 28.5166C20.9536 28.5222 20.9739 28.5277 20.9942 28.5291C21.0023 28.5291 21.0077 28.5333 21.0159 28.5333L32.3905 28.543L30.8015 31.3686L3.64352 31.3478L3.64487 31.3519ZM23.227 24.2504L21.335 20.87C21.3282 20.8589 21.3188 20.8491 21.312 20.8394C21.3093 20.8352 21.3066 20.8324 21.3039 20.8283C21.2769 20.7921 21.2444 20.7601 21.2052 20.7365C21.1971 20.7323 21.189 20.7323 21.1808 20.7282C21.1633 20.7198 21.1457 20.7156 21.1267 20.7101C21.0997 20.7017 21.0727 20.6934 21.0456 20.692C21.0402 20.692 21.0348 20.6878 21.0294 20.6878L17.2103 20.6433L15.647 17.8553L22.8199 17.8609L26.4009 24.2532L23.227 24.2504ZM14.7247 17.306C14.7058 17.3408 14.6936 17.3797 14.6855 17.42C14.6855 17.4228 14.6855 17.4256 14.6855 17.4284C14.6841 17.4395 14.6828 17.4493 14.6814 17.459C14.6814 17.4687 14.6774 17.4785 14.6774 17.4882C14.6774 17.4882 14.6774 17.4882 14.6774 17.4896C14.6774 17.491 14.6774 17.4924 14.6774 17.4937C14.6774 17.5229 14.6814 17.5535 14.6882 17.5827C14.6882 17.5855 14.6895 17.5869 14.6909 17.5883C14.6936 17.5966 14.6977 17.605 14.7004 17.6133C14.7044 17.6245 14.7085 17.6342 14.7125 17.6453C14.7166 17.6537 14.7179 17.6634 14.7234 17.6717L16.6018 21.023C16.6018 21.0327 16.6058 21.041 16.6072 21.0508L15.0263 23.875L11.4439 17.484L15.0344 11.1L16.6207 13.9312L14.7234 17.3046L14.7247 17.306ZM15.0263 24.9735C15.033 24.9735 15.0398 24.9693 15.0466 24.9693C15.0628 24.9693 15.0777 24.9665 15.0925 24.9624C15.1088 24.9596 15.125 24.9554 15.1399 24.9499C15.1548 24.9443 15.1683 24.9387 15.1818 24.9318C15.1886 24.929 15.1953 24.929 15.2021 24.9248C15.2088 24.9207 15.2116 24.9137 15.2183 24.9095C15.2318 24.9012 15.2427 24.8915 15.2548 24.8803C15.267 24.8692 15.2792 24.8581 15.29 24.8456C15.3008 24.8331 15.3103 24.8205 15.3184 24.8066C15.3224 24.8011 15.3292 24.7969 15.3319 24.7899L17.2441 21.3734L20.41 21.4109L16.8141 27.8046L9.64256 27.7963L11.2329 24.9693L15.0249 24.9721L15.0263 24.9735ZM15.0425 3.98459L20.4154 13.5682L17.2374 13.5655L15.3441 10.1864C15.2805 10.0738 15.1629 10.0043 15.0371 10.0029C14.91 10.0029 14.7923 10.0724 14.7288 10.185L10.7271 17.2991C10.7271 17.2991 10.7244 17.3116 10.7217 17.3171C10.7069 17.3477 10.696 17.3811 10.6893 17.4145C10.6866 17.4284 10.6852 17.4423 10.6839 17.4562C10.6812 17.4951 10.6825 17.5341 10.692 17.5716C10.692 17.5758 10.6947 17.58 10.696 17.5855C10.7042 17.6133 10.7136 17.6398 10.7285 17.6662L14.4123 24.2393L11.2356 24.2365L9.34234 20.8589C9.33693 20.8505 9.32881 20.845 9.32476 20.838C9.31529 20.8227 9.30177 20.8102 9.2896 20.7963C9.26931 20.774 9.24903 20.7532 9.22468 20.7379C9.21927 20.7351 9.21657 20.7295 9.21116 20.7254C9.20034 20.7184 9.18817 20.7184 9.17735 20.7129C9.15166 20.7017 9.12731 20.6906 9.09891 20.6864C9.07728 20.6823 9.05699 20.6823 9.03535 20.6823C9.01236 20.6823 8.99073 20.6823 8.96774 20.6864C8.94204 20.692 8.91905 20.7003 8.89471 20.7115C8.88254 20.717 8.86901 20.717 8.85684 20.724C8.84873 20.7282 8.84332 20.7351 8.83656 20.7393C8.82574 20.7476 8.81492 20.756 8.8041 20.7643C8.77705 20.788 8.75406 20.8144 8.73648 20.8436C8.73378 20.8491 8.72837 20.8519 8.72567 20.8561L3.0309 30.9807L1.4473 28.1523L15.0425 3.98459ZM18.8345 3.62166L32.3946 27.8172L21.6352 27.8074L23.2242 24.9818L27.0162 24.9846C27.023 24.9846 27.0298 24.9804 27.0365 24.9804C27.0595 24.9791 27.0825 24.9721 27.1055 24.9665C27.1285 24.9596 27.1515 24.954 27.1731 24.9429C27.1799 24.9401 27.1866 24.9401 27.1934 24.936C27.2069 24.9276 27.2137 24.9151 27.2259 24.9067C27.2461 24.8915 27.2651 24.8762 27.2813 24.8567C27.2962 24.8386 27.307 24.8191 27.3192 24.7997C27.33 24.7788 27.3408 24.7594 27.3489 24.7371C27.357 24.7135 27.3597 24.6884 27.3638 24.6634C27.3652 24.6481 27.3719 24.6342 27.3719 24.6189C27.3719 24.612 27.3679 24.605 27.3679 24.598C27.3679 24.5744 27.3597 24.5508 27.3543 24.5271C27.3476 24.5035 27.3422 24.4799 27.3313 24.4576C27.3286 24.4506 27.3286 24.4437 27.3246 24.4367L23.3351 17.3144C23.327 17.3005 23.3149 17.2921 23.3067 17.281C23.2919 17.2601 23.2756 17.2393 23.2567 17.2226C23.2405 17.2087 23.2242 17.199 23.2067 17.1878C23.185 17.1739 23.1634 17.1628 23.1391 17.1531C23.1201 17.1461 23.0998 17.1433 23.0795 17.1405C23.062 17.1378 23.0457 17.1294 23.0268 17.1294L15.6484 17.1239L17.2387 14.2969L21.0307 14.2997C21.0375 14.2997 21.0443 14.2955 21.051 14.2955C21.0754 14.2955 21.0983 14.2871 21.1227 14.2802C21.1443 14.2732 21.166 14.2691 21.1863 14.2579C21.193 14.2552 21.2011 14.2552 21.2079 14.251C21.2228 14.2427 21.2309 14.2287 21.2431 14.219C21.2606 14.2051 21.2782 14.1912 21.2931 14.1731C21.3093 14.1537 21.3215 14.1328 21.3337 14.1105C21.3445 14.0925 21.3539 14.0744 21.3607 14.0535C21.3702 14.0285 21.3729 14.0021 21.3756 13.9743C21.3769 13.9604 21.3837 13.9479 21.3837 13.9326C21.3837 13.9256 21.3796 13.92 21.3796 13.9131C21.3783 13.8881 21.3715 13.863 21.3648 13.838C21.358 13.8144 21.3526 13.7921 21.3431 13.7713C21.3404 13.7643 21.3404 13.7574 21.3364 13.7504L15.6578 3.61888L18.8345 3.62166Z" fill="white"></path>
<path d="M19.0401 2.89023L15.0439 2.88745C14.9127 2.88745 14.7977 2.96115 14.7355 3.06961C14.7355 3.07239 14.7342 3.07517 14.7328 3.07796L0.727846 27.9743C0.664286 28.0869 0.664286 28.226 0.727846 28.34L2.72122 31.8998C2.73609 31.9276 2.75502 31.9526 2.77666 31.9749C2.80506 32.0041 2.84022 32.0263 2.87674 32.0444C2.8862 32.0486 2.89567 32.0528 2.90514 32.0569C2.94435 32.0722 2.98492 32.082 3.0282 32.082L31.007 32.1028C31.1342 32.1028 31.2518 32.0333 31.3154 31.9207L33.3155 28.365C33.3277 28.3442 33.3344 28.3219 33.3412 28.2997C33.3466 28.2844 33.3507 28.2691 33.3534 28.2524C33.3588 28.2218 33.3615 28.1912 33.3601 28.1606C33.3601 28.1453 33.3574 28.13 33.3547 28.1133C33.3493 28.0814 33.3385 28.0494 33.3236 28.0188C33.3209 28.0118 33.3209 28.0049 33.3169 27.9979L19.3484 3.07378C19.2848 2.96115 19.1672 2.89162 19.0414 2.89023H19.0401ZM3.64487 31.3519L9.03265 21.7725L10.619 24.6036L8.72161 27.9757C8.72161 27.9757 8.72161 27.9771 8.72026 27.9785C8.69997 28.016 8.6878 28.0577 8.68104 28.1008C8.67968 28.1106 8.67833 28.1203 8.67698 28.1314C8.67698 28.1412 8.67292 28.1509 8.67292 28.1606C8.67292 28.1759 8.67968 28.1898 8.68239 28.2051C8.68509 28.2302 8.68915 28.2538 8.69727 28.2788C8.70538 28.3011 8.71485 28.3205 8.72567 28.34C8.73648 28.3609 8.74865 28.3803 8.76353 28.3984C8.77976 28.4165 8.79734 28.4318 8.81627 28.4471C8.82844 28.4568 8.83656 28.4707 8.85008 28.4777C8.85684 28.4818 8.86496 28.4818 8.87172 28.4846C8.892 28.4944 8.91364 28.4999 8.93528 28.5069C8.95962 28.5138 8.98396 28.5208 9.00966 28.5222C9.01642 28.5222 9.02183 28.5263 9.02859 28.5263L17.0224 28.5347C17.0994 28.5347 17.1711 28.5069 17.2306 28.4624C17.2347 28.4596 17.2374 28.4568 17.2414 28.454C17.2766 28.4262 17.3077 28.3928 17.3307 28.3525C17.3307 28.3497 17.3307 28.3484 17.3334 28.3456L21.0253 21.7808L22.6103 24.612L20.7116 27.9868C20.7116 27.9868 20.7089 27.9993 20.7048 28.0049C20.6926 28.0299 20.6845 28.0577 20.6778 28.0855C20.6737 28.105 20.6683 28.1231 20.6669 28.1425C20.6669 28.1523 20.6615 28.1592 20.6615 28.169C20.6615 28.1884 20.6697 28.2051 20.6724 28.2246C20.6751 28.2441 20.6778 28.2621 20.6832 28.2816C20.6926 28.3094 20.7048 28.3344 20.7197 28.3581C20.7292 28.3734 20.7373 28.3887 20.7481 28.4012C20.767 28.4248 20.79 28.4429 20.8144 28.461C20.8238 28.4679 20.8306 28.4777 20.84 28.4846C20.8455 28.4874 20.8509 28.4874 20.8563 28.4902C20.8806 28.5027 20.9063 28.5097 20.9334 28.5166C20.9536 28.5222 20.9739 28.5277 20.9942 28.5291C21.0023 28.5291 21.0077 28.5333 21.0159 28.5333L32.3905 28.543L30.8015 31.3686L3.64352 31.3478L3.64487 31.3519ZM23.227 24.2504L21.335 20.87C21.3282 20.8589 21.3188 20.8491 21.312 20.8394C21.3093 20.8352 21.3066 20.8324 21.3039 20.8283C21.2769 20.7921 21.2444 20.7601 21.2052 20.7365C21.1971 20.7323 21.189 20.7323 21.1808 20.7282C21.1633 20.7198 21.1457 20.7156 21.1267 20.7101C21.0997 20.7017 21.0727 20.6934 21.0456 20.692C21.0402 20.692 21.0348 20.6878 21.0294 20.6878L17.2103 20.6433L15.647 17.8553L22.8199 17.8609L26.4009 24.2532L23.227 24.2504ZM14.7247 17.306C14.7058 17.3408 14.6936 17.3797 14.6855 17.42C14.6855 17.4228 14.6855 17.4256 14.6855 17.4284C14.6841 17.4395 14.6828 17.4493 14.6814 17.459C14.6814 17.4687 14.6774 17.4785 14.6774 17.4882C14.6774 17.4882 14.6774 17.4882 14.6774 17.4896C14.6774 17.491 14.6774 17.4924 14.6774 17.4937C14.6774 17.5229 14.6814 17.5535 14.6882 17.5827C14.6882 17.5855 14.6895 17.5869 14.6909 17.5883C14.6936 17.5966 14.6977 17.605 14.7004 17.6133C14.7044 17.6245 14.7085 17.6342 14.7125 17.6453C14.7166 17.6537 14.7179 17.6634 14.7234 17.6717L16.6018 21.023C16.6018 21.0327 16.6058 21.041 16.6072 21.0508L15.0263 23.875L11.4439 17.484L15.0344 11.1L16.6207 13.9312L14.7234 17.3046L14.7247 17.306ZM15.0263 24.9735C15.033 24.9735 15.0398 24.9693 15.0466 24.9693C15.0628 24.9693 15.0777 24.9665 15.0925 24.9624C15.1088 24.9596 15.125 24.9554 15.1399 24.9499C15.1548 24.9443 15.1683 24.9387 15.1818 24.9318C15.1886 24.929 15.1953 24.929 15.2021 24.9248C15.2088 24.9207 15.2116 24.9137 15.2183 24.9095C15.2318 24.9012 15.2427 24.8915 15.2548 24.8803C15.267 24.8692 15.2792 24.8581 15.29 24.8456C15.3008 24.8331 15.3103 24.8205 15.3184 24.8066C15.3224 24.8011 15.3292 24.7969 15.3319 24.7899L17.2441 21.3734L20.41 21.4109L16.8141 27.8046L9.64256 27.7963L11.2329 24.9693L15.0249 24.9721L15.0263 24.9735ZM15.0425 3.98459L20.4154 13.5682L17.2374 13.5655L15.3441 10.1864C15.2805 10.0738 15.1629 10.0043 15.0371 10.0029C14.91 10.0029 14.7923 10.0724 14.7288 10.185L10.7271 17.2991C10.7271 17.2991 10.7244 17.3116 10.7217 17.3171C10.7069 17.3477 10.696 17.3811 10.6893 17.4145C10.6866 17.4284 10.6852 17.4423 10.6839 17.4562C10.6812 17.4951 10.6825 17.5341 10.692 17.5716C10.692 17.5758 10.6947 17.58 10.696 17.5855C10.7042 17.6133 10.7136 17.6398 10.7285 17.6662L14.4123 24.2393L11.2356 24.2365L9.34234 20.8589C9.33693 20.8505 9.32881 20.845 9.32476 20.838C9.31529 20.8227 9.30177 20.8102 9.2896 20.7963C9.26931 20.774 9.24903 20.7532 9.22468 20.7379C9.21927 20.7351 9.21657 20.7295 9.21116 20.7254C9.20034 20.7184 9.18817 20.7184 9.17735 20.7129C9.15166 20.7017 9.12731 20.6906 9.09891 20.6864C9.07728 20.6823 9.05699 20.6823 9.03535 20.6823C9.01236 20.6823 8.99073 20.6823 8.96774 20.6864C8.94204 20.692 8.91905 20.7003 8.89471 20.7115C8.88254 20.717 8.86901 20.717 8.85684 20.724C8.84873 20.7282 8.84332 20.7351 8.83656 20.7393C8.82574 20.7476 8.81492 20.756 8.8041 20.7643C8.77705 20.788 8.75406 20.8144 8.73648 20.8436C8.73378 20.8491 8.72837 20.8519 8.72567 20.8561L3.0309 30.9807L1.4473 28.1523L15.0425 3.98459ZM18.8345 3.62166L32.3946 27.8172L21.6352 27.8074L23.2242 24.9818L27.0162 24.9846C27.023 24.9846 27.0298 24.9804 27.0365 24.9804C27.0595 24.9791 27.0825 24.9721 27.1055 24.9665C27.1285 24.9596 27.1515 24.954 27.1731 24.9429C27.1799 24.9401 27.1866 24.9401 27.1934 24.936C27.2069 24.9276 27.2137 24.9151 27.2259 24.9067C27.2461 24.8915 27.2651 24.8762 27.2813 24.8567C27.2962 24.8386 27.307 24.8191 27.3192 24.7997C27.33 24.7788 27.3408 24.7594 27.3489 24.7371C27.357 24.7135 27.3597 24.6884 27.3638 24.6634C27.3652 24.6481 27.3719 24.6342 27.3719 24.6189C27.3719 24.612 27.3679 24.605 27.3679 24.598C27.3679 24.5744 27.3597 24.5508 27.3543 24.5271C27.3476 24.5035 27.3422 24.4799 27.3313 24.4576C27.3286 24.4506 27.3286 24.4437 27.3246 24.4367L23.3351 17.3144C23.327 17.3005 23.3149 17.2921 23.3067 17.281C23.2919 17.2601 23.2756 17.2393 23.2567 17.2226C23.2405 17.2087 23.2242 17.199 23.2067 17.1878C23.185 17.1739 23.1634 17.1628 23.1391 17.1531C23.1201 17.1461 23.0998 17.1433 23.0795 17.1405C23.062 17.1378 23.0457 17.1294 23.0268 17.1294L15.6484 17.1239L17.2387 14.2969L21.0307 14.2997C21.0375 14.2997 21.0443 14.2955 21.051 14.2955C21.0754 14.2955 21.0983 14.2871 21.1227 14.2802C21.1443 14.2732 21.166 14.2691 21.1863 14.2579C21.193 14.2552 21.2011 14.2552 21.2079 14.251C21.2228 14.2427 21.2309 14.2287 21.2431 14.219C21.2606 14.2051 21.2782 14.1912 21.2931 14.1731C21.3093 14.1537 21.3215 14.1328 21.3337 14.1105C21.3445 14.0925 21.3539 14.0744 21.3607 14.0535C21.3702 14.0285 21.3729 14.0021 21.3756 13.9743C21.3769 13.9604 21.3837 13.9479 21.3837 13.9326C21.3837 13.9256 21.3796 13.92 21.3796 13.9131C21.3783 13.8881 21.3715 13.863 21.3648 13.838C21.358 13.8144 21.3526 13.7921 21.3431 13.7713C21.3404 13.7643 21.3404 13.7574 21.3364 13.7504L15.6578 3.61888L18.8345 3.62166Z" stroke="white" stroke-width="0.2" mask="url(#path-1-outside-1_2_701)"></path>
</svg></svg></g></g></svg></g></svg>