<?xml version="1.0" encoding="UTF-8"?>
<svg id="Layer_2" data-name="Layer 2" xmlns="http://www.w3.org/2000/svg" viewBox="0 0 241.66 210.11">
  <g id="Layer_1-2" data-name="Layer 1">
    <path d="M135.76.02L106.21,0c-.97,0-1.82.53-2.28,1.31,0,.02-.01.04-.02.06L.35,180.41c-.47.81-.47,1.81,0,2.63l14.74,25.6c.11.2.25.38.41.54,0,0,0,0,0,0,.21.21.47.37.74.5.07.03.14.06.21.09.29.11.59.18.91.18l206.89.15c.94,0,1.81-.5,2.28-1.31l14.79-25.57c.09-.15.14-.31.19-.47.04-.11.07-.22.09-.34.04-.22.06-.44.05-.66,0-.11-.02-.22-.04-.34-.04-.23-.12-.46-.23-.68-.02-.05-.02-.1-.05-.15L138.04,1.34c-.47-.81-1.34-1.31-2.27-1.32ZM21.92,204.7l39.84-68.89,11.73,20.36-14.03,24.25s0,.01-.01.02c-.15.27-.24.57-.29.88-.01.07-.02.14-.03.22,0,.07-.03.14-.03.21,0,.11.05.21.07.32.02.18.05.35.11.53.06.16.13.3.21.44.08.15.17.29.28.42.12.13.25.24.39.35.09.07.15.17.25.22.05.03.11.03.16.05.15.07.31.11.47.16.18.05.36.1.55.11.05,0,.09.03.14.03l59.11.06c.57,0,1.1-.2,1.54-.52.03-.02.05-.04.08-.06.26-.2.49-.44.66-.73,0-.02,0-.03.02-.05l27.3-47.21,11.72,20.36-14.04,24.27s-.02.09-.05.13c-.09.18-.15.38-.2.58-.03.14-.07.27-.08.41,0,.07-.04.12-.04.19,0,.14.06.26.08.4.02.14.04.27.08.41.07.2.16.38.27.55.07.11.13.22.21.31.14.17.31.3.49.43.07.05.12.12.19.17.04.02.08.02.12.04.18.09.37.14.57.19.15.04.3.08.45.09.06,0,.1.03.16.03l84.11.07-11.75,20.32-200.82-.15ZM166.72,153.63l-13.99-24.31c-.05-.08-.12-.15-.17-.22-.02-.03-.04-.05-.06-.08-.2-.26-.44-.49-.73-.66-.06-.03-.12-.03-.18-.06-.13-.06-.26-.09-.4-.13-.2-.06-.4-.12-.6-.13-.04,0-.08-.03-.12-.03l-28.24-.32-11.56-20.05,53.04.04,26.48,45.97-23.47-.02ZM103.85,103.69h0s0,0,0,0c-.14.25-.23.53-.29.82,0,.02,0,.04,0,.06-.01.08-.02.15-.03.22,0,.07-.03.14-.03.21,0,0,0,0,0,.01,0,.01,0,.02,0,.03,0,.21.03.43.08.64,0,.02.01.03.02.04.02.06.05.12.07.18.03.08.06.15.09.23.03.06.04.13.08.19l13.89,24.1c0,.07.03.13.04.2l-11.69,20.31-26.49-45.96,26.55-45.91,11.73,20.36-14.03,24.26ZM106.08,158.83c.05,0,.1-.03.15-.03.12,0,.23-.02.34-.05.12-.02.24-.05.35-.09.11-.04.21-.08.31-.13.05-.02.1-.02.15-.05.05-.03.07-.08.12-.11.1-.06.18-.13.27-.21.09-.08.18-.16.26-.25.08-.09.15-.18.21-.28.03-.04.08-.07.1-.12h0s14.14-24.57,14.14-24.57l23.41.27-26.59,45.98-53.03-.06,11.76-20.33,28.04.02ZM106.2,7.89l39.73,68.92-23.5-.02-14-24.3c-.47-.81-1.34-1.31-2.27-1.32-.94,0-1.81.5-2.28,1.31l-29.59,51.16s-.02.09-.04.13c-.11.22-.19.46-.24.7-.02.1-.03.2-.04.3-.02.28-.01.56.06.83,0,.03.02.06.03.1.06.2.13.39.24.58l27.24,47.27-23.49-.02-14-24.29c-.04-.06-.1-.1-.13-.15-.07-.11-.17-.2-.26-.3-.15-.16-.3-.31-.48-.42-.04-.02-.06-.06-.1-.09-.08-.05-.17-.05-.25-.09-.19-.08-.37-.16-.58-.19-.16-.03-.31-.03-.47-.03-.17,0-.33,0-.5.03-.19.04-.36.1-.54.18-.09.04-.19.04-.28.09-.06.03-.1.08-.15.11-.08.06-.16.12-.24.18-.2.17-.37.36-.5.57-.02.04-.06.06-.08.09l-42.11,72.81-11.71-20.34L106.2,7.89ZM134.24,5.28l100.27,174-79.56-.07,11.75-20.32,28.04.02c.05,0,.1-.03.15-.03.17-.01.34-.06.51-.1.17-.05.34-.09.5-.17.05-.02.1-.02.15-.05.1-.06.15-.15.24-.21.15-.11.29-.22.41-.36.11-.13.19-.27.28-.41.08-.15.16-.29.22-.45.06-.17.08-.35.11-.53.01-.11.06-.21.06-.32,0-.05-.03-.1-.03-.15,0-.17-.06-.34-.1-.51-.05-.17-.09-.34-.17-.5-.02-.05-.02-.1-.05-.15l-29.5-51.22c-.06-.1-.15-.16-.21-.24-.11-.15-.23-.3-.37-.42-.12-.1-.24-.17-.37-.25-.16-.1-.32-.18-.5-.25-.14-.05-.29-.07-.44-.09-.13-.02-.25-.08-.39-.08l-54.56-.04,11.76-20.33,28.04.02c.05,0,.1-.03.15-.03.18,0,.35-.06.53-.11.16-.05.32-.08.47-.16.05-.02.11-.02.16-.05.11-.06.17-.16.26-.23.13-.1.26-.2.37-.33.12-.14.21-.29.3-.45.08-.13.15-.26.2-.41.07-.18.09-.37.11-.57.01-.1.06-.19.06-.3,0-.05-.03-.09-.03-.14-.01-.18-.06-.36-.11-.54-.05-.17-.09-.33-.16-.48-.02-.05-.02-.1-.05-.15L110.75,5.26l23.49.02Z"/>
  </g>
</svg>